<?xml version="1.0" standalone="no"?><!DOCTYPE svg PUBLIC "-//W3C//DTD SVG 1.1//EN" "http://www.w3.org/Graphics/SVG/1.1/DTD/svg11.dtd"><svg t="1732065046914" class="icon" viewBox="0 0 1024 1024" version="1.1" xmlns="http://www.w3.org/2000/svg" p-id="7761" xmlns:xlink="http://www.w3.org/1999/xlink" width="200" height="200"><path d="M686.08 595.456c-1.024 9.728-6.144 15.872-14.848 20.48-10.752 5.12-21.504 10.752-32.256 14.848-2.56 1.024-4.608 2.048-6.144 4.096-28.16 35.84-48.64 75.264-56.32 120.832-9.728 57.344 1.024 111.104 29.184 161.792 1.536 2.56 3.072 3.072 6.144 3.072h72.192c9.728 0 17.408 6.144 19.456 14.848 2.048 8.704-1.536 17.408-8.704 22.016-3.584 2.048-7.68 3.072-11.776 3.072H260.608c-14.336 0-23.552-10.24-22.016-23.552 1.536-10.24 9.728-16.896 20.48-16.896h160.256c3.072 0 4.608-1.024 5.632-4.096 16.384-37.376 27.136-75.776 27.648-116.736 0-70.656-26.624-129.024-80.384-174.592-1.536-1.536-3.072-2.048-5.12-3.072-71.68-35.84-121.856-91.136-149.504-165.888-1.024-3.072-2.56-3.584-5.632-3.584-16.896 0-33.792 1.024-50.176-3.584-51.2-14.336-81.92-47.616-92.672-99.328-0.512-2.048 0-4.608-2.048-6.144v-4.096c0.512-0.512 0.512-1.536 0-2.048V150.528c2.56-2.048 5.632-1.536 8.704-1.536h116.736c6.144 0 6.144-0.512 6.144-6.144V72.704c0-3.072-0.512-6.144 1.536-8.704h77.824c11.264 2.56 15.872 8.704 17.408 20.992-2.048 13.824-10.24 20.992-24.576 20.992h-22.016c-6.144 0-6.656 0.512-6.656 6.656v243.2c0 60.928 18.944 115.2 57.856 161.792 43.008 51.712 97.792 82.432 164.352 89.6 40.448 4.608 80.896 4.608 120.832-3.584 17.408-3.584 34.304-9.216 50.176-16.896 7.168-3.072 14.336-6.656 20.992-10.24 11.776-6.144 26.624 2.56 29.184 14.336 1.024 1.536 2.048 3.072 0.512 4.608z m139.776-531.968v82.432c0 3.584 1.024 4.608 4.608 4.608h120.832c4.096 0 5.12 1.024 5.12 5.12v172.544c0 61.952-44.544 113.664-105.472 122.88-11.776 2.048-24.064 1.536-36.352 1.024-3.072 0-4.608 1.024-5.12 3.584-5.632 15.872-12.8 31.232-20.992 46.08-4.608 8.704-10.752 13.824-20.48 14.848-9.216 1.536-18.944-6.144-20.48-16.384-0.512-5.632 0-11.264 3.072-16.384 17.92-31.232 29.184-65.024 32.768-100.864 0.512-7.68 1.536-14.848 1.536-22.528v-245.76c0-8.704 0-8.704-8.704-8.704h-11.264c-9.728 0-17.408-4.096-21.504-12.8-1.536-3.072-2.048-6.144-1.536-9.216 0.512-10.752 6.144-17.408 16.384-19.968 21.504-0.512 44.544-0.512 67.584-0.512z" fill="#381D0A" p-id="7762"></path><path d="M324.096 63.488h330.24c11.264 2.048 16.896 8.704 17.408 21.504-2.048 13.824-9.728 20.48-24.064 20.48H329.728c-13.312-0.512-20.992-7.168-23.552-20.48 1.024-12.288 6.144-18.432 17.92-21.504z" fill="#381D0A" p-id="7763"></path><path d="M67.584 336.896c1.024 0.512 1.536 1.536 0 2.048v-2.048z" fill="#696969" p-id="7764"></path><path d="M742.912 91.648c5.12 8.704 12.288 12.8 22.528 12.288 4.608-0.512 9.216 0 14.336 0 4.608-0.512 6.144 1.024 6.144 5.632-0.512 25.088 0 49.664 0 74.752v175.104c0 44.544-11.776 86.016-33.792 124.416-6.144 10.752-4.608 22.016 4.096 28.672 3.584 2.56 7.68 3.584 11.776 4.608-20.992 32.256-47.616 58.88-80.896 78.848-1.536-10.752-6.656-17.408-17.92-19.456-5.12-1.024-9.216 0.512-13.312 3.072-6.144 3.072-11.776 6.656-17.92 8.704-0.512-2.56 1.536-3.584 3.072-4.608 31.744-23.04 56.832-52.224 74.752-87.552 12.8-25.088 20.992-51.712 24.576-79.36 1.536-12.8 2.048-25.6 2.048-38.912V100.864c-1.024-3.072-2.048-6.656 0.512-9.216z" fill="#EC8B1C" p-id="7765"></path><path d="M821.248 961.024h-52.224c-12.8 0-21.504-8.704-21.504-20.48 0-11.264 9.216-19.968 21.504-19.968h104.96c12.8 0 21.504 8.704 21.504 20.48 0 11.264-9.216 19.968-21.504 19.968h-52.736z m-645.12-40.448h24.064c12.288 0 20.992 8.704 20.992 20.48 0 11.264-8.704 19.968-20.992 19.968h-49.152c-12.288 0-20.992-8.704-20.992-20.48 0-11.264 9.216-19.968 20.992-19.968h25.088z" fill="#381D0A" p-id="7766"></path><path d="M742.912 91.648v293.888c0 38.4-8.704 74.752-26.112 109.056-10.752 20.992-24.064 39.936-39.936 57.344-11.776 12.288-24.064 23.552-38.4 33.28-0.512 0.512-1.024 1.024-1.536 2.048-17.92 9.216-36.864 15.36-56.32 18.432-49.664 7.68-99.84 10.24-148.48-3.584-100.352-28.16-162.304-94.208-185.856-196.096-3.584-16.384-5.12-33.28-5.12-50.176V109.056c0-4.608 1.536-5.632 5.632-5.632 7.68 0.512 14.848 0 22.528 0 15.872 0 22.016-5.12 25.088-19.968H307.2c2.048 13.824 9.216 19.968 23.04 19.968h316.928c13.824 0 20.992-6.656 23.04-19.968h65.536c2.048 0 3.584 0 5.632-0.512 0.512 3.584 1.024 6.144 1.536 8.704z" fill="#FEDD5D" p-id="7767"></path><path d="M447.488 647.68c42.496 5.12 84.48 4.608 127.488 0.512-24.576 41.472-39.424 86.016-41.472 134.144-2.048 48.128 7.68 93.696 28.16 137.728H467.968c17.92-45.056 27.648-91.136 25.088-139.264-3.072-48.64-18.432-92.672-45.568-133.12zM125.952 190.976h71.68c3.072 0 3.072 1.024 3.072 3.584v159.744c0 18.432 1.536 36.352 4.608 54.272 0.512 3.072 0 3.584-3.072 3.584-14.848 0.512-29.184-0.512-43.008-6.144-18.432-15.36-28.16-34.816-32.768-57.856-1.024-6.144-2.048-12.288-2.048-18.432V199.68c0.512-3.072-0.512-6.144 1.536-8.704z" fill="#E96200" p-id="7768"></path><path d="M125.952 190.976v136.192c0 29.184 9.728 53.76 30.72 74.752 1.024 1.024 2.56 2.048 2.56 4.096-22.528-10.24-38.4-26.624-46.592-49.664-3.072-8.192-4.608-16.896-4.608-25.6V195.584c0-3.072 0.512-4.608 4.096-4.096 4.608-0.512 9.216-0.512 13.824-0.512z" fill="#F49351" p-id="7769"></path><path d="M860.16 406.528c-12.8 5.12-25.6 5.632-39.424 5.12 6.656-30.72 5.12-61.952 5.12-92.672v-122.88c0-4.096 1.024-5.12 5.12-5.12 21.504 0.512 43.008 0 64.512 0.512 1.536 2.048 1.536 4.096 1.536 6.144 0 45.056 0.512 90.112 0 135.168-0.512 26.112-10.24 48.64-28.16 67.584-3.072 2.56-6.144 4.096-8.704 6.144z" fill="#E96200" p-id="7770"></path><path d="M860.16 406.528c9.216-9.216 17.408-18.432 23.552-30.208 5.632-10.752 9.728-22.528 10.752-34.816 2.048-26.624 0.512-53.248 1.024-79.36 0.512-23.552 0-47.616 0-71.68 5.12 0 10.24 0 15.36-0.512 4.096-0.512 4.608 1.024 4.608 4.608v102.4c0 14.336 1.536 28.672-1.024 43.008-5.632 32.768-23.552 55.296-54.272 66.56z" fill="#F49351" p-id="7771"></path><path d="M287.744 283.648c-0.512 27.648 0.512 57.344 1.024 87.04 0.512 26.624 8.192 51.712 18.944 76.288 1.024 2.048 2.048 4.096 2.56 6.144 2.048 4.608 0.512 9.216-3.072 11.264-4.608 2.048-8.704 0.512-11.264-4.096-6.144-12.288-10.752-25.6-14.848-38.912-6.144-18.432-7.68-37.888-8.192-57.344-1.536-43.52-1.024-87.04-1.024-130.56 0-6.656 2.048-9.728 6.144-10.752 5.632-1.536 10.24 2.56 10.24 8.704-0.512 16.384-0.512 33.28-0.512 52.224z m0.512-113.664v28.16c0 2.048 0 4.096-0.512 6.144-1.024 4.096-3.584 5.632-7.68 5.632-3.584 0-6.144-2.048-7.68-5.632-1.536-4.096 0-8.192 0-11.776l0.512-49.152v-4.608c1.024-4.608 4.608-7.168 8.704-6.656 4.096 0.512 7.168 3.584 7.168 8.192 0 10.24 0 19.968-0.512 29.696 0.512 0 0.512 0 0 0z m75.264 353.28c0 2.56-1.536 5.12-4.608 6.656-3.072 1.536-6.144 1.536-8.704-0.512-10.24-8.192-19.456-17.408-27.136-27.648-2.56-3.584-2.048-8.704 1.024-10.752 3.072-2.56 8.192-2.56 10.752 0.512 8.192 9.216 16.384 17.92 25.6 25.6 2.048 1.536 3.072 3.584 3.072 6.144z" fill="#FEFEFE" p-id="7772"></path></svg>