<?xml version="1.0" standalone="no"?><!DOCTYPE svg PUBLIC "-//W3C//DTD SVG 1.1//EN" "http://www.w3.org/Graphics/SVG/1.1/DTD/svg11.dtd"><svg t="1732065081704" class="icon" viewBox="0 0 1082 1024" version="1.1" xmlns="http://www.w3.org/2000/svg" p-id="9834" xmlns:xlink="http://www.w3.org/1999/xlink" width="211.328125" height="200"><path d="M325.049865 861.527264l343.555903-276.981616s31.555168-30.250255 4.065002-68.527702c-21.202859-29.514759-70.68674-11.823302-70.68674-11.823303L224.571567 628.540986" fill="#FFC9C9" p-id="9835"></path><path d="M722.898056 979.570482l348.316858-337.268596s25.774008-47.087587-2.388386-75.376518c-28.178211-28.320566-78.508309-5.883971-78.508309-5.883971L621.834524 770.080545 228.652385 628.011112l-179.018241 1.115108 31.001569 258.404401 152.508736 0.450788 321.657092 121.080106c-0.007909-0.047451 101.229612 48.519037 168.096515-29.491033z" fill="#FFC9C9" p-id="9836"></path><path d="M205.83618 939.94067l-175.127228-0.324251L0 553.820879l206.761482 0.324251z" fill="#81C5E8" p-id="9837"></path><path d="M230.22619 55.359944h682.366668v369.00566H230.22619z" fill="#74C7AE" p-id="9838"></path><path d="M813.941438 94.554784H327.952308a66.036505 66.036505 0 0 1-57.368719 58.167484v169.828491a66.012779 66.012779 0 0 1 57.669244 61.837057h485.38808a66.012779 66.012779 0 0 1 58.586637-61.947777V152.840897a66.06023 66.06023 0 0 1-58.286112-58.286113z" fill="#81DEC2" p-id="9839"></path><path d="M460.412836 240.380785a115.567837 110.98087 90 1 0 221.961741 0 115.567837 110.98087 90 1 0-221.961741 0Z" fill="#71C2A9" p-id="9840"></path><path d="M346.703512 244.050358m-35.770433 0a35.770432 35.770432 0 1 0 71.540865 0 35.770432 35.770432 0 1 0-71.540865 0Z" fill="#E5E600" p-id="9841"></path><path d="M798.907259 244.050358m-35.770432 0a35.770432 35.770432 0 1 0 71.540864 0 35.770432 35.770432 0 1 0-71.540864 0Z" fill="#E5E600" p-id="9842"></path></svg>