<?xml version="1.0" standalone="no"?><!DOCTYPE svg PUBLIC "-//W3C//DTD SVG 1.1//EN" "http://www.w3.org/Graphics/SVG/1.1/DTD/svg11.dtd"><svg t="1732014546010" class="icon" viewBox="0 0 1024 1024" version="1.1" xmlns="http://www.w3.org/2000/svg" p-id="1168" xmlns:xlink="http://www.w3.org/1999/xlink" width="200" height="200"><path d="M434 444.2c-9.9 0-18-8.1-18-18v-49.5c0-9.9 8.1-18 18-18h156c9.9 0 18 8.1 18 18v49.5c0 9.9-8.1 18-18 18H434z" fill="#65C8FF" p-id="1169"></path><path d="M307.5 784.5c-47.4 0-91.7-18.7-124.7-52.7s-50.5-78.8-49.2-126.2c2.6-93.3 82-169.1 177.2-169.1h405.8c47.8 0 94 20 126.8 54.9 33.2 35.4 49.9 81.6 46.8 130.2-5.5 89-79.8 160.5-169 162.9-1.6 0-3.1 0.1-4.7 0.1-60.8 0-118-32.5-149.3-84.7-3.3-5.4-9.2-8.8-15.4-8.8h-79.5c-6.4 0-12.2 3.4-15.6 9-31.8 52.8-87.6 84.4-149.2 84.4z" fill="#FCC66F" p-id="1170"></path><path d="M720.7 736.4c-58.6 1.5-110.2-29.3-138.1-75.9-6.5-10.9-18.2-17.6-30.9-17.6h-79.5c-12.7 0-24.4 6.8-31 17.7-27.3 45.4-77 75.8-133.8 75.8-81.1 0-147.7-61.9-155.2-141-0.3 3.5-0.6 7-0.7 10.6-2.4 88.2 68.3 160.4 155.9 160.4 56.8 0 106.5-30.4 133.8-75.8 6.6-10.9 18.2-17.7 31-17.7h79.5c12.7 0 24.4 6.7 30.9 17.6 27.9 46.6 79.5 77.4 138.1 75.9 80-2.1 146.5-66.1 151.5-146 0.5-8.5 0.4-16.9-0.4-25.1-7.3 77.6-72.8 139.1-151.1 141.1z" fill="#FFD79C" p-id="1171"></path><path d="M307.5 694.3c-46.2 0-83.8-37.6-83.8-83.8s37.6-83.8 83.8-83.8 83.8 37.6 83.8 83.8-37.6 83.8-83.8 83.8z" fill="#F56E73" p-id="1172"></path><path d="M307.5 508.7c-56.1 0-101.8 45.6-101.8 101.8s45.6 101.8 101.8 101.8c56.1 0 101.8-45.6 101.8-101.8s-45.7-101.8-101.8-101.8z m0 167.6c-36.3 0-65.8-29.4-65.8-65.8s29.4-65.8 65.8-65.8 65.8 29.4 65.8 65.8-29.5 65.8-65.8 65.8zM543.5 514h-63c-9.9 0-18 8.1-18 18s8.1 18 18 18h63c9.9 0 18-8.1 18-18s-8.1-18-18-18zM543.5 577h-63c-9.9 0-18 8.1-18 18s8.1 18 18 18h63c9.9 0 18-8.1 18-18s-8.1-18-18-18zM716.5 522.5c-9.9 0-18 8.1-18 18v52h-52c-9.9 0-18 8.1-18 18s8.1 18 18 18h52v52c0 9.9 8.1 18 18 18s18-8.1 18-18v-140c0-9.9-8.1-18-18-18z" fill="#453B56" p-id="1173"></path><path d="M786.5 610.5m-18 0a18 18 0 1 0 36 0 18 18 0 1 0-36 0Z" fill="#453B56" p-id="1174"></path><path d="M856.4 479c-36.2-38.5-87.2-60.5-139.9-60.5H626v-41.8c0-19.9-16.1-36-36-36h-60v-40c0-23.8 19.4-43.2 43.3-43.2h78.5c23.8 0 43.2 19.4 43.2 43.2 0 31.6 25.7 57.3 57.3 57.3H770c9.9 0 18-8.1 18-18s-8.1-18-18-18h-17.7c-11.7 0-21.3-9.5-21.3-21.3 0-43.7-35.5-79.2-79.2-79.2h-78.5c-43.7 0-79.3 35.5-79.3 79.2v40h-60c-19.9 0-36 16.1-36 36v41.8h-87.3c-50.6 0-98.6 19.1-135.3 53.8-37.2 35.2-58.5 82.3-59.9 132.9-1.4 52.3 17.8 101.8 54.3 139.3 36.5 37.5 85.3 58.1 137.6 58.1 67 0 130.1-35.7 164.6-93.2 0.1-0.2 0.3-0.3 0.3-0.3h79.4c34.5 57.7 97.6 93.5 164.7 93.5 1.7 0 3.4 0 5.2-0.1 98.5-2.6 180.4-81.5 186.5-179.7 3.4-53.7-15-104.7-51.7-143.8zM434 376.7h156v41.8H434v-41.8z m438.2 243.8c-5 79.8-71.5 143.9-151.5 146-1.4 0-2.8 0.1-4.2 0.1-56.9 0-106.6-30.5-133.9-75.9-6.5-10.9-18.2-17.6-30.9-17.6h-79.5c-12.7 0-24.4 6.8-31 17.7-27.3 45.4-77 75.8-133.8 75.8-87.6 0-158.4-72.2-155.9-160.4 2.3-85 74.2-151.6 159.2-151.6h405.8c89.5-0.1 161.3 75.2 155.7 165.9z" fill="#453B56" p-id="1175"></path><path d="M822.2 340.2m-18 0a18 18 0 1 0 36 0 18 18 0 1 0-36 0Z" fill="#453B56" p-id="1176"></path></svg>