<?xml version="1.0" standalone="no"?><!DOCTYPE svg PUBLIC "-//W3C//DTD SVG 1.1//EN" "http://www.w3.org/Graphics/SVG/1.1/DTD/svg11.dtd"><svg t="1732015030946" class="icon" viewBox="0 0 1042 1024" version="1.1" xmlns="http://www.w3.org/2000/svg" p-id="2353" xmlns:xlink="http://www.w3.org/1999/xlink" width="203.515625" height="200"><path d="M24.576 382.205952c0-22.114304 18.092032-40.206336 40.20224-40.206336h40.20224c22.110208 0 40.20224 18.092032 40.20224 40.206336v258.1504c0 22.114304-18.092032 40.20224-40.20224 40.20224h-40.20224c-22.110208 0-40.20224-18.087936-40.20224-40.20224V382.205952z" fill="#ADADCC" p-id="2354"></path><path d="M40.96 382.205952a23.846912 23.846912 0 0 1 23.81824-23.822336h40.20224a23.846912 23.846912 0 0 1 23.81824 23.822336v258.1504a23.842816 23.842816 0 0 1-23.81824 23.81824h-40.20224A23.83872 23.83872 0 0 1 40.96 640.356352V382.205952z m-32.768 258.1504c0 31.203328 25.387008 56.58624 56.58624 56.58624h40.20224c31.203328 0 56.58624-25.382912 56.58624-56.58624V382.205952c0-31.203328-25.387008-56.590336-56.58624-56.590336h-40.20224C33.579008 325.615616 8.192 351.002624 8.192 382.205952v258.1504z" fill="#6E6E96" p-id="2355"></path><path d="M145.190912 334.094336c0-22.110208 18.092032-40.20224 40.206336-40.20224h40.198144c22.114304 0 40.206336 18.092032 40.206336 40.20224v355.81952c0 22.106112-18.092032 40.198144-40.206336 40.198144h-40.198144c-22.110208 0-40.206336-18.092032-40.206336-40.198144v-355.81952z" fill="#ADADCC" p-id="2356"></path><path d="M161.574912 334.094336a23.846912 23.846912 0 0 1 23.822336-23.81824h40.198144a23.846912 23.846912 0 0 1 23.822336 23.81824v355.81952a23.842816 23.842816 0 0 1-23.822336 23.814144h-40.198144a23.842816 23.842816 0 0 1-23.822336-23.814144v-355.81952z m-32.768 355.81952c0 31.199232 25.387008 56.582144 56.590336 56.582144h40.198144c31.203328 0 56.590336-25.382912 56.590336-56.582144v-355.81952c0-31.203328-25.387008-56.58624-56.590336-56.58624h-40.198144c-31.203328 0-56.590336 25.382912-56.590336 56.58624v355.81952z" fill="#6E6E96" p-id="2357"></path><path d="M897.024 382.205952c0-22.114304 18.092032-40.206336 40.20224-40.206336h40.198144c22.114304 0 40.206336 18.092032 40.206336 40.206336v258.1504c0 22.114304-18.092032 40.20224-40.206336 40.20224h-40.198144c-22.110208 0-40.20224-18.087936-40.20224-40.20224V382.205952z" fill="#ADADCC" p-id="2358"></path><path d="M913.408 382.205952a23.846912 23.846912 0 0 1 23.81824-23.822336h40.198144a23.851008 23.851008 0 0 1 23.822336 23.822336v258.1504a23.846912 23.846912 0 0 1-23.822336 23.81824h-40.198144a23.83872 23.83872 0 0 1-23.81824-23.81824V382.205952z m-32.768 258.1504c0 31.203328 25.382912 56.58624 56.58624 56.58624h40.198144c31.203328 0 56.590336-25.382912 56.590336-56.58624V382.205952c0-31.203328-25.387008-56.590336-56.590336-56.590336h-40.198144c-31.203328 0-56.58624 25.387008-56.58624 56.590336v258.1504z" fill="#6E6E96" p-id="2359"></path><path d="M776.409088 334.094336c0-22.110208 18.092032-40.20224 40.20224-40.20224h40.20224c22.106112 0 40.198144 18.092032 40.198144 40.20224v355.81952c0 22.106112-18.092032 40.198144-40.198144 40.198144h-40.20224c-22.110208 0-40.20224-18.092032-40.20224-40.198144v-355.81952z" fill="#ADADCC" p-id="2360"></path><path d="M792.793088 334.094336a23.83872 23.83872 0 0 1 23.81824-23.81824h40.20224a23.83872 23.83872 0 0 1 23.814144 23.81824v355.81952a23.83872 23.83872 0 0 1-23.814144 23.814144h-40.20224a23.83872 23.83872 0 0 1-23.81824-23.814144v-355.81952z m-32.768 355.81952c0 31.199232 25.382912 56.582144 56.58624 56.582144h40.20224c31.199232 0 56.582144-25.382912 56.582144-56.582144v-355.81952c0-31.203328-25.382912-56.58624-56.582144-56.58624h-40.20224c-31.203328 0-56.58624 25.382912-56.58624 56.58624v355.81952z" fill="#6E6E96" p-id="2361"></path><path d="M265.805824 528.384h510.603264a16.384 16.384 0 0 0 0-32.768H265.805824a16.384 16.384 0 0 0 0 32.768z" fill="#6E6E96" p-id="2362"></path><path d="M100.888576 610.926592h-40.20224c-22.110208 0-40.20224-18.087936-40.20224-40.20224v69.632c0 22.114304 18.092032 40.20224 40.20224 40.20224h40.20224c22.110208 0 40.20224-18.087936 40.20224-40.20224v-69.632c0 22.114304-18.092032 40.20224-40.20224 40.20224z m880.64 0h-40.20224c-22.110208 0-40.20224-18.087936-40.20224-40.20224v69.632c0 22.114304 18.092032 40.20224 40.20224 40.20224h40.20224c22.110208 0 40.20224-18.087936 40.20224-40.20224v-69.632c0 22.114304-18.092032 40.20224-40.20224 40.20224z m-128.806912 37.265408h-40.20224c-22.110208 0-40.20224-18.092032-40.20224-40.198144v77.824c0 22.106112 18.092032 40.198144 40.20224 40.198144h40.20224c22.106112 0 40.198144-18.092032 40.198144-40.198144v-77.824c0.004096 22.106112-18.087936 40.198144-40.198144 40.198144z m-626.688 0h-40.20224c-22.110208 0-40.20224-18.092032-40.20224-40.198144v77.824c0 22.106112 18.092032 40.198144 40.20224 40.198144h40.20224c22.106112 0 40.198144-18.092032 40.198144-40.198144v-77.824c0.004096 22.106112-18.087936 40.198144-40.198144 40.198144z" fill="#6E6E96" opacity=".25" p-id="2363"></path><path d="M941.32224 407.953408h40.20224c22.110208 0 40.20224 18.087936 40.20224 40.20224v-69.632c0-22.114304-18.092032-40.20224-40.20224-40.20224h-40.20224c-22.110208 0-40.20224 18.087936-40.20224 40.20224v69.632c0-22.114304 18.092032-40.20224 40.20224-40.20224z m-880.64 0h40.20224c22.110208 0 40.20224 18.087936 40.20224 40.20224v-69.632c0-22.114304-18.092032-40.20224-40.20224-40.20224h-40.20224C38.572032 338.321408 20.48 356.409344 20.48 378.523648v69.632c0-22.114304 18.092032-40.20224 40.20224-40.20224zM189.485056 370.688h40.20224c22.110208 0 40.20224 18.092032 40.20224 40.198144v-77.824c0-22.106112-18.092032-40.198144-40.20224-40.198144h-40.20224c-22.106112 0-40.198144 18.092032-40.198144 40.198144v77.824c0-22.106112 18.092032-40.198144 40.198144-40.198144z m626.688 0h40.20224c22.110208 0 40.20224 18.092032 40.20224 40.198144v-77.824c0-22.106112-18.092032-40.198144-40.20224-40.198144h-40.20224c-22.106112 0-40.198144 18.092032-40.198144 40.198144v77.824c0-22.106112 18.092032-40.198144 40.198144-40.198144z" fill="#FFFFFF" opacity=".25" p-id="2364"></path><path d="M40.96 382.205952a23.846912 23.846912 0 0 1 23.81824-23.822336h40.20224a23.846912 23.846912 0 0 1 23.81824 23.822336v258.1504a23.842816 23.842816 0 0 1-23.81824 23.81824h-40.20224A23.83872 23.83872 0 0 1 40.96 640.356352V382.205952z m-32.768 258.1504c0 31.203328 25.387008 56.58624 56.58624 56.58624h40.20224c31.203328 0 56.58624-25.382912 56.58624-56.58624V382.205952c0-31.203328-25.387008-56.590336-56.58624-56.590336h-40.20224C33.579008 325.615616 8.192 351.002624 8.192 382.205952v258.1504z" fill="#6E6E96" p-id="2365"></path><path d="M161.574912 334.094336a23.846912 23.846912 0 0 1 23.822336-23.81824h40.198144a23.846912 23.846912 0 0 1 23.822336 23.81824v355.81952a23.842816 23.842816 0 0 1-23.822336 23.814144h-40.198144a23.842816 23.842816 0 0 1-23.822336-23.814144v-355.81952z m-32.768 355.81952c0 31.199232 25.387008 56.582144 56.590336 56.582144h40.198144c31.203328 0 56.590336-25.382912 56.590336-56.582144v-355.81952c0-31.203328-25.387008-56.58624-56.590336-56.58624h-40.198144c-31.203328 0-56.590336 25.382912-56.590336 56.58624v355.81952zM913.408 382.205952a23.846912 23.846912 0 0 1 23.81824-23.822336h40.198144a23.851008 23.851008 0 0 1 23.822336 23.822336v258.1504a23.846912 23.846912 0 0 1-23.822336 23.81824h-40.198144a23.83872 23.83872 0 0 1-23.81824-23.81824V382.205952z m-32.768 258.1504c0 31.203328 25.382912 56.58624 56.58624 56.58624h40.198144c31.203328 0 56.590336-25.382912 56.590336-56.58624V382.205952c0-31.203328-25.387008-56.590336-56.590336-56.590336h-40.198144c-31.203328 0-56.58624 25.387008-56.58624 56.590336v258.1504z" fill="#6E6E96" p-id="2366"></path><path d="M792.793088 334.094336a23.83872 23.83872 0 0 1 23.81824-23.81824h40.20224a23.83872 23.83872 0 0 1 23.814144 23.81824v355.81952a23.83872 23.83872 0 0 1-23.814144 23.814144h-40.20224a23.83872 23.83872 0 0 1-23.81824-23.814144v-355.81952z m-32.768 355.81952c0 31.199232 25.382912 56.582144 56.58624 56.582144h40.20224c31.199232 0 56.582144-25.382912 56.582144-56.582144v-355.81952c0-31.203328-25.382912-56.58624-56.582144-56.58624h-40.20224c-31.203328 0-56.58624 25.382912-56.58624 56.58624v355.81952z" fill="#6E6E96" p-id="2367"></path></svg>