<?xml version="1.0" standalone="no"?><!DOCTYPE svg PUBLIC "-//W3C//DTD SVG 1.1//EN" "http://www.w3.org/Graphics/SVG/1.1/DTD/svg11.dtd"><svg t="1732065389779" class="icon" viewBox="0 0 1024 1024" version="1.1" xmlns="http://www.w3.org/2000/svg" p-id="17357" xmlns:xlink="http://www.w3.org/1999/xlink" width="200" height="200"><path d="M187.3 886.5c-1.4 0-2.8-0.7-3.5-2.1l-19.5-35c-1.1-1.9-0.4-4.4 1.5-5.4 1.9-1.1 4.4-0.4 5.4 1.5l19.5 35c1.1 1.9 0.4 4.4-1.5 5.4-0.6 0.5-1.3 0.6-1.9 0.6z" fill="#7ADDF4" p-id="17358"></path><path d="M160 878.8c-1.4 0-2.8-0.7-3.5-2.1-1.1-1.9-0.4-4.4 1.5-5.4l35-19.5c1.9-1.1 4.4-0.4 5.4 1.5 1.1 1.9 0.4 4.4-1.5 5.4l-35 19.5c-0.6 0.4-1.2 0.6-1.9 0.6z" fill="#7ADDF4" p-id="17359"></path><path d="M368.8 271.3c-1.8 0-3.4-1.2-3.9-3l-6.3-23.4c-0.6-2.1 0.7-4.3 2.8-4.9 2.1-0.6 4.3 0.7 4.9 2.8l6.3 23.4c0.6 2.1-0.7 4.3-2.8 4.9-0.3 0.1-0.7 0.2-1 0.2z" fill="#ACD598" p-id="17360"></path><path d="M354 262.7c-1.8 0-3.4-1.2-3.9-3-0.6-2.1 0.7-4.3 2.8-4.9l23.4-6.3c2.1-0.6 4.3 0.7 4.9 2.8s-0.7 4.3-2.8 4.9l-23.4 6.3c-0.3 0.2-0.7 0.2-1 0.2z" fill="#ACD598" p-id="17361"></path><path d="M759.5 188.9c-0.8 0-1.6-0.2-2.3-0.8l-24.7-17.8c-1.8-1.3-2.2-3.8-0.9-5.6s3.8-2.2 5.6-0.9l24.7 17.8c1.8 1.3 2.2 3.8 0.9 5.6-0.8 1.1-2 1.7-3.3 1.7z" fill="#FFF100" p-id="17362"></path><path d="M738.3 192.4c-0.8 0-1.6-0.2-2.3-0.8-1.8-1.3-2.2-3.8-0.9-5.6l17.7-24.7c1.3-1.8 3.8-2.2 5.6-0.9s2.2 3.8 0.9 5.6l-17.7 24.7c-0.8 1.1-2.1 1.7-3.3 1.7z" fill="#FFF100" p-id="17363"></path><path d="M803.9 290.5c-3.4 0-6.8-1.2-9.4-3.7l-0.4-0.4c-5.4-5.4-5.4-14.2 0-19.6 5.4-5.4 14.2-5.4 19.6 0 5.4 5.4 5.4 14.2 0 19.6-2.7 2.7-6.2 4.1-9.8 4.1z m-5.8-8.3c3.2 3.2 8.3 3.2 11.4 0.1 3.1-3.1 3.1-8.2 0-11.4s-8.2-3.1-11.4 0c-2.9 3.1-3 8.2 0 11.3z" fill="#FFA4A4" p-id="17364"></path><path d="M58.5 680.4c-8.1 0-14.8-6.7-14.8-14.8s6.7-14.8 14.8-14.8 14.8 6.7 14.8 14.8-6.7 14.8-14.8 14.8z m0-23.7c-4.9 0-8.9 4-8.9 8.9s4 8.9 8.9 8.9 8.9-4 8.9-8.9-4-8.9-8.9-8.9z" fill="#EA929F" p-id="17365"></path><path d="M631 135.8c-4.9 0-9.7-1.8-13.5-5.6-3.6-3.6-5.6-8.4-5.6-13.5s2-9.9 5.6-13.5l0.1-0.1c7.4-7.4 19.5-7.4 26.9 0 3.6 3.6 5.6 8.4 5.6 13.5s-2 9.9-5.6 13.5c-3.7 3.8-8.6 5.7-13.5 5.7z m-9.4-28.5c-2.5 2.5-3.9 5.9-3.9 9.5 0 3.6 1.4 6.9 3.9 9.4 5.2 5.2 13.7 5.2 18.9 0 2.5-2.5 3.9-5.9 3.9-9.4 0-3.6-1.4-7-3.9-9.4-2.5-2.5-5.9-3.9-9.4-3.9-3.7-0.1-7 1.2-9.5 3.8z" fill="#73F4F0" p-id="17366"></path><path d="M934.8 233.1c-7.7 0-14-6.3-14-14s6.3-14 14-14 14 6.3 14 14-6.3 14-14 14z m0-22.9c-4.9 0-8.9 4-8.9 8.9s4 8.9 8.9 8.9 8.9-4 8.9-8.9-4-8.9-8.9-8.9z" fill="#A4C0FF" p-id="17367"></path><path d="M216.6 720.9c-8.8 0-16-7.2-16-16s7.2-16 16-16 16 7.2 16 16-7.2 16-16 16z m0-26.7c-5.9 0-10.7 4.8-10.7 10.7s4.8 10.7 10.7 10.7 10.7-4.8 10.7-10.7-4.8-10.7-10.7-10.7z" fill="#66C1FF" p-id="17368"></path><path d="M110.9 125c-8.8 0-16-7.2-16-16s7.2-16 16-16 16 7.2 16 16-7.2 16-16 16z m0-24c-4.4 0-8 3.6-8 8s3.6 8 8 8 8-3.6 8-8-3.6-8-8-8z" fill="#FFC68D" p-id="17369"></path><path d="M625.1 255.7a8.5 8.5 0 1 0 17 0 8.5 8.5 0 1 0-17 0z" fill="#D3D462" p-id="17370"></path><path d="M269 941.2a9 9 0 1 0 18 0 9 9 0 1 0-18 0z" fill="#CBA6FF" p-id="17371"></path><path d="M893.5 131.1a8 8 0 1 0 16 0 8 8 0 1 0-16 0z" fill="#E8A0EF" p-id="17372"></path><path d="M109.9 760.6a12 12 0 1 0 24 0 12 12 0 1 0-24 0z" fill="#F2ED62" p-id="17373"></path><path d="M968.6 48.8a6 6 0 1 0 12 0 6 6 0 1 0-12 0z" fill="#B4DB61" p-id="17374"></path><path d="M73.3 562.7a5 5 0 1 0 10 0 5 5 0 1 0-10 0z" fill="#6AD125" p-id="17375"></path><path d="M278 818.8c-2.3 0-4.6-0.9-6.3-2.6-1.7-1.7-2.6-4-2.6-6.3s0.9-4.7 2.6-6.3l0.1-0.1c3.5-3.5 9.2-3.4 12.6 0.1 3.5 3.5 3.5 9.2 0 12.7-1.8 1.6-4.1 2.5-6.4 2.5z m-2.7-11.7c-0.7 0.7-1.1 1.7-1.1 2.7 0 1 0.4 2 1.2 2.7 1.5 1.5 3.9 1.5 5.5 0 1.5-1.5 1.5-3.9 0-5.5-1.7-1.4-4.1-1.4-5.6 0.1z m-1.8-1.9z" fill="#FF8A8A" p-id="17376"></path><path d="M810 77.3c-3.5 0-6.9-1.3-9.5-3.9-5.2-5.2-5.2-13.7-0.1-19l0.1-0.1c5.2-5.2 13.8-5.2 19 0s5.2 13.8 0 19c-2.6 2.6-6 4-9.5 4z m-5.4-19c-1.5 1.5-2.3 3.5-2.3 5.5 0 2.1 0.8 4 2.3 5.5 3 3 8 3 11 0s3-8 0-11c-3-3.1-8-3.1-11 0z m-2.1-2z" fill="#B3D465" p-id="17377"></path><path d="M65.3 941.2a8 8 0 1 0 16 0 8 8 0 1 0-16 0z" fill="#BCED96" p-id="17378"></path><path d="M454 57.8a8 8 0 1 0 16 0 8 8 0 1 0-16 0z" fill="#D3A884" p-id="17379"></path><path d="M510 545.8c10.8 0 21.6-0.7 32.3-2.2 1.3 0.4 2.3 1.4 2.7 2.6 0.1 0.4 0.2 0.9 0.1 1.4-48.4 51.9-116.1 81.3-187 81.2-141.4 0-256-114.6-256-256s114.6-256 256-256h2.3c2.1 0.1 3.7 1.9 3.7 4 0 2.2-2.2 2.7-4 4-0.4 0.3-0.1 0.2 0.7-0.1-55.6 45-87.8 112.6-87.7 184.1-0.1 130.9 106 237 236.9 237z m22.2-341c-12 4.6-18 13.3-18 26.2s-4 14.3-12.1 4.3-18.2-13-30.5-9c-12.2 4-14.8 0.6-7.8-10.2s6.7-21.4-0.9-31.7c-7.6-10.4-5.2-13.9 7.3-10.6 12.4 3.3 22.4-0.2 29.9-10.6s11.6-9.2 12.3 3.6 7.1 21.2 19.4 25.2c12.2 3.9 12.3 8.2 0.4 12.8z" fill="#FFDF00" p-id="17380"></path><path d="M340.7 649.8h-0.2c-73.8 0-143.3-28.8-195.5-81S64 447.1 64 373.3 92.8 230 145 177.8s121.7-81 195.5-81c8.9 0 17.8 0.4 26.5 1.3 4.3 0.4 7.8 3.5 8.8 7.7s-0.8 8.5-4.4 10.8C304.7 158.2 265 230.1 265 308.8c0 125.2 101.8 227 227 227h0.1c18.5 0 36.9-2.3 54.9-6.7 4.1-1 8.5 0.7 10.8 4.3s2.1 8.3-0.6 11.6c-25.7 32.5-59 59.2-96.3 77.3-37.3 18-78.8 27.5-120.2 27.5z m-4.2-533C196.9 118.9 84 233.2 84 373.3c0 141.4 115.1 256.5 256.5 256.5h0.2c69.2 0 134.1-27.3 182-75.9-10.1 1.3-20.4 1.9-30.6 1.9h-0.1c-66 0-128-25.7-174.7-72.3S245 374.8 245 308.8c0-41.7 10.6-83.1 30.8-119.6 15.4-27.8 36.1-52.4 60.7-72.4z" fill="#222222" p-id="17381"></path><path d="M496.1 258.3c-8.2 0-14.6-8-17.3-11.3-6.7-8.3-14.1-10.5-24.2-7.2-4.7 1.6-17.3 5.7-23.8-2.9-6.6-8.5 0.6-19.6 3.3-23.8 5.8-8.9 5.6-16.7-0.7-25.3-2.9-4-10.7-14.7-4.6-23.6 6.1-8.9 18.8-5.5 23.6-4.2 10.2 2.7 17.6 0.1 23.8-8.5 2.9-4 10.7-14.8 21-11.7 10.3 3 11 16.3 11.3 21.2 0.6 10.6 5.3 16.8 15.4 20.1 4.7 1.5 17.3 5.6 17.6 16.4 0.3 10.8-12 15.5-16.7 17.3-9.9 3.8-14.3 10.3-14.3 20.9 0 5 0 18.2-10.1 21.8-1.5 0.5-2.9 0.8-4.3 0.8z m-33-40c10.4 0 19.8 4.1 27.7 12.1 1.4-14.6 8.9-25.5 22-32.1-13.4-5.8-21.5-16.4-23.7-30.8-9.7 10.9-22.2 15.4-36.6 13 7.4 12.6 7.8 25.9 1.1 38.9 3.2-0.7 6.4-1.1 9.5-1.1z m58.1-12.8z" fill="#222222" p-id="17382"></path><path d="M376 876.8h568c8.8 0 16 7.2 16 16s-7.2 16-16 16H376c-8.8 0-16-7.2-16-16 0-8.9 7.2-16 16-16z" fill="#22B4FF" p-id="17383"></path><path d="M892.3 812.4h37.3c5.5 0 10-4.5 10-10v-452c0-5.5-4.5-10-10-10h-580c-5.5 0-10 4.5-10 10v452c0 5.5 4.5 10 10 10H771" fill="#FFFFFF" p-id="17384"></path><path d="M369.7 340.4h580c5.5 0 10 4.5 10 10v401c0 5.5-4.5 10-10 10h-580c-5.5 0-10-4.5-10-10v-401c0-5.5 4.4-10 10-10z" fill="#57EBBF" p-id="17385"></path><path d="M939.7 832.4h-47.3c-5.5 0-10-4.5-10-10s4.5-10 10-10h47.3v-472h-600v138.4c0 5.5-4.5 10-10 10s-10-4.5-10-10V340.4c0-11 9-20 20-20h600c11 0 20 9 20 20v472c0 11.1-9 20-20 20z m-168.7 0H339.7c-11 0-20-9-20-20V641.8c0-5.5 4.5-10 10-10s10 4.5 10 10v170.6H771c5.5 0 10 4.5 10 10s-4.5 10-10 10zM311 563.8a16 16 0 1 0 32 0 16 16 0 1 0-32 0zM817 821.8a16 16 0 1 0 32 0 16 16 0 1 0-32 0z" fill="#222222" p-id="17386"></path><path d="M335 764.8h612" fill="#358AFE" p-id="17387"></path><path d="M947 774.8H335c-5.5 0-10-4.5-10-10s4.5-10 10-10h612c5.5 0 10 4.5 10 10s-4.5 10-10 10z m-23 154H356c-19.9 0-36-16.1-36-36s16.1-36 36-36h568c19.9 0 36 16.1 36 36s-16.1 36-36 36z m-568-52c-8.8 0-16 7.2-16 16s7.2 16 16 16h568c8.8 0 16-7.2 16-16s-7.2-16-16-16H356z" fill="#222222" p-id="17388"></path><path d="M492 548.8a148 148 0 1 0 296 0 148 148 0 1 0-296 0z" fill="#FFFFFF" p-id="17389"></path><path d="M512 548.8a148 148 0 1 0 296 0 148 148 0 1 0-296 0z" fill="#87FFFE" p-id="17390"></path><path d="M640.5 717.1c-92.5 0-167.8-75.3-167.8-167.8S548 381.5 640.5 381.5s167.8 75.3 167.8 167.8S733 717.1 640.5 717.1z m0-315.7c-81.5 0-147.8 66.3-147.8 147.8S559 697.1 640.5 697.1s147.8-66.3 147.8-147.8S722 401.4 640.5 401.4z" fill="#222222" p-id="17391"></path><path d="M640.1 556.6l-59-0.1c-5.5 0-10-4.5-10-10s4.5-10 10-10l48.9 0.1-0.1-86.8c0-5.5 4.5-10 10-10s10 4.5 10 10l0.1 96.9c0 2.7-1.1 5.2-2.9 7.1-1.8 1.8-4.4 2.8-7 2.8z" fill="#222222" p-id="17392"></path><path d="M748.2 629.1c-1.9 0-3.9-0.5-5.6-1.7L640 558.5a9.99 9.99 0 0 1-2.7-13.9c3.1-4.6 9.3-5.8 13.9-2.7l102.6 68.9c4.6 3.1 5.8 9.3 2.7 13.9-1.9 2.9-5.1 4.4-8.3 4.4zM143.3 362.8c5.5 0 10 4.5 10 10s-4.5 10-10 10-10-4.5-10-10 4.4-10 10-10z m58.8-0.1c5.5 0 10 4.5 10 10s-4.5 10-10 10-10-4.5-10-10 4.4-10 10-10z" fill="#222222" p-id="17393"></path><path d="M190 403.8c-3.3-5.4-11.3-7-18-7-6.6 0-14.8 2.9-16 7.6-2.1 8.2 38.5 6.9 34-0.6z" fill="#FF1834" p-id="17394"></path><path d="M172.4 413c-6.4 0-12.7-0.9-15.9-2.7-4-2.2-3.7-5.4-3.4-6.6 1.6-6.4 10.9-9.8 18.9-9.8 4.6 0 16 0.8 20.6 8.4 1.3 2.1 1 4.5-0.7 6.2-3 3-11.4 4.5-19.5 4.5z m-13.4-8.2c1 0.7 4.5 2 11.3 2.2 8.4 0.3 14.6-1.2 16.6-2.3-2.4-3.1-7.9-4.9-15-4.9-5.7 0-11.8 2.4-12.9 5z m28.4 0.5l2.6-1.6-2.6 1.6z" fill="#222222" p-id="17395"></path></svg>