<?xml version="1.0" standalone="no"?><!DOCTYPE svg PUBLIC "-//W3C//DTD SVG 1.1//EN" "http://www.w3.org/Graphics/SVG/1.1/DTD/svg11.dtd"><svg t="1732015261297" class="icon" viewBox="0 0 1024 1024" version="1.1" xmlns="http://www.w3.org/2000/svg" p-id="2946" xmlns:xlink="http://www.w3.org/1999/xlink" width="200" height="200"><path d="M257.024 850.3296c-15.7696 0-28.672 12.9024-28.672 28.672V958.464c0 15.7696 12.9024 28.672 28.672 28.672h24.576c15.781888 0 28.672-12.9024 28.672-28.672v-79.4624c0-15.7696-12.890112-28.672-28.672-28.672h-24.576z" fill="#ACACD4" p-id="2947"></path><path d="M257.024 835.9936c-23.71584 0-43.008 19.296256-43.008 43.008V958.464c0 23.71584 19.29216 43.008 43.008 43.008h24.576c23.71584 0 43.008-19.29216 43.008-43.008v-79.4624c0-23.711744-19.29216-43.008-43.008-43.008h-24.576z m24.576 28.672c7.917568 0 14.336 6.43072 14.336 14.336V958.464c0 7.90528-6.418432 14.336-14.336 14.336h-24.576c-7.90528 0-14.336-6.43072-14.336-14.336v-79.4624c0-7.90528 6.43072-14.336 14.336-14.336h24.576z" fill="#6E6E96" p-id="2948"></path><path d="M758.784 837.705728c-15.7696 0-28.672 12.9024-28.672 28.672V958.464c0 15.7696 12.9024 28.672 28.672 28.672h24.576c15.781888 0 28.672-12.9024 28.672-28.672v-92.086272c0-15.7696-12.890112-28.672-28.672-28.672h-24.576z" fill="#ACACD4" p-id="2949"></path><path d="M758.784 823.369728c-23.71584 0-43.008 19.296256-43.008 43.008V958.464c0 23.71584 19.29216 43.008 43.008 43.008h24.576c23.71584 0 43.008-19.29216 43.008-43.008v-92.086272c0-23.711744-19.29216-43.008-43.008-43.008h-24.576z m24.576 28.672c7.917568 0 14.336 6.43072 14.336 14.336V958.464c0 7.90528-6.418432 14.336-14.336 14.336h-24.576c-7.90528 0-14.336-6.43072-14.336-14.336v-92.086272c0-7.90528 6.43072-14.336 14.336-14.336h24.576z" fill="#6E6E96" p-id="2950"></path><path d="M873.472 795.308032c0 56.32-46.08 102.4-102.4 102.4H267.264c-56.32 0-102.4-46.08-102.4-102.4v-602.112c0-56.32 46.08-102.4 102.4-102.4h503.808c56.32 0 102.4 46.08 102.4 102.4v602.112z" fill="#FFE563" p-id="2951"></path><path d="M947.933184 522.24c0 14.680064-11.943936 26.624-26.624 26.624h-83.288064a26.656768 26.656768 0 0 1-26.624-26.624v-196.608c0-14.680064 11.943936-26.624 26.624-26.624h83.288064c14.680064 0 26.624 11.943936 26.624 26.624v196.608z m28.672-196.608c0-30.490624-24.817664-55.296-55.296-55.296h-83.288064c-30.490624 0-55.296 24.805376-55.296 55.296v196.608c0 30.486528 24.805376 55.296 55.296 55.296h83.288064c30.478336 0 55.296-24.809472 55.296-55.296v-196.608zM209.289216 522.24c0 14.680064-11.943936 26.624-26.624 26.624H114.397184a26.656768 26.656768 0 0 1-26.624-26.624v-196.608c0-14.680064 11.943936-26.624 26.624-26.624h68.268032c14.680064 0 26.624 11.943936 26.624 26.624v196.608z m28.672-196.608c0-30.490624-24.817664-55.296-55.296-55.296H114.397184c-30.490624 0-55.296 24.805376-55.296 55.296v196.608c0 30.486528 24.805376 55.296 55.296 55.296h68.268032c30.478336 0 55.296-24.809472 55.296-55.296v-196.608z" fill="#6E6E96" p-id="2952"></path><path d="M164.864 231.215104h708.608v392.790016H164.864zM118.493184 479.916032c0 22.528-18.432 40.96-40.96 40.96s-40.96-18.432-40.96-40.96V367.955968c0-22.528 18.432-40.96 40.96-40.96s40.96 18.432 40.96 40.96v111.960064z" fill="#FFE563" p-id="2953"></path><path d="M104.157184 479.916032c0 14.680064-11.943936 26.624-26.624 26.624s-26.624-11.943936-26.624-26.624V367.955968c0-14.680064 11.943936-26.624 26.624-26.624s26.624 11.943936 26.624 26.624v111.960064z m28.672-111.960064c0-30.490624-24.817664-55.296-55.296-55.296-30.490624 0-55.296 24.805376-55.296 55.296v111.955968c0 30.490624 24.805376 55.296 55.296 55.296 30.478336 0 55.296-24.805376 55.296-55.296V367.955968z" fill="#6E6E96" p-id="2954"></path><path d="M922.624 479.916032c0 22.528 18.432 40.96 40.96 40.96s40.96-18.432 40.96-40.96V367.955968c0-22.528-18.432-40.96-40.96-40.96s-40.96 18.432-40.96 40.96v111.960064z" fill="#FFE563" p-id="2955"></path><path d="M908.288 479.916032c0 30.490624 24.817664 55.296 55.296 55.296 30.490624 0 55.296-24.805376 55.296-55.296V367.955968c0-30.490624-24.805376-55.296-55.296-55.296-30.478336 0-55.296 24.805376-55.296 55.296v111.960064z m28.672-111.960064c0-14.680064 11.943936-26.624 26.624-26.624s26.624 11.943936 26.624 26.624v111.955968c0 14.680064-11.943936 26.624-26.624 26.624s-26.624-11.943936-26.624-26.624V367.955968z" fill="#6E6E96" p-id="2956"></path><path d="M280.969216 775.168m-46.419968 0a46.419968 46.419968 0 1 0 92.839936 0 46.419968 46.419968 0 1 0-92.839936 0Z" fill="#F0F0FF" p-id="2957"></path><path d="M313.053184 775.168c0 17.686528-14.405632 32.088064-32.083968 32.088064-17.690624 0-32.083968-14.401536-32.083968-32.088064s14.393344-32.083968 32.083968-32.083968c17.690624 0 32.083968 14.39744 32.083968 32.083968z m-32.083968-60.755968c-33.513472 0-60.755968 27.250688-60.755968 60.755968s27.242496 60.760064 60.755968 60.760064c33.501184 0 60.755968-27.254784 60.755968-60.760064s-27.254784-60.755968-60.755968-60.755968z" fill="#6E6E96" p-id="2958"></path><path d="M759.017472 775.168m-46.419968 0a46.419968 46.419968 0 1 0 92.839936 0 46.419968 46.419968 0 1 0-92.839936 0Z" fill="#F0F0FF" p-id="2959"></path><path d="M791.10144 775.168c0 17.686528-14.405632 32.088064-32.083968 32.088064-17.690624 0-32.088064-14.401536-32.088064-32.088064s14.39744-32.083968 32.088064-32.083968c17.690624 0 32.083968 14.39744 32.083968 32.083968z m-32.083968-60.755968c-33.517568 0-60.760064 27.250688-60.760064 60.755968s27.242496 60.760064 60.760064 60.760064c33.501184 0 60.755968-27.254784 60.755968-60.760064s-27.254784-60.755968-60.755968-60.755968z" fill="#6E6E96" p-id="2960"></path><path d="M763.670528 96.395264H270.639104c-55.115776 0-100.20864 45.092864-100.20864 100.20864v55.410688c0-55.115776 45.092864-100.20864 100.20864-100.20864h493.031424c55.115776 0 100.20864 45.092864 100.20864 100.20864V196.603904c0-55.115776-45.092864-100.20864-100.20864-100.20864z" fill="#FFF1A8" p-id="2961"></path><path d="M962.719744 338.20672c-0.606208 0-1.224704 0.065536-1.835008 0.094208 10.665984 5.77536 17.85856 16.42496 17.85856 28.581888v90.64448c0 18.243584-16.187392 33.169408-35.975168 33.169408a38.199296 38.199296 0 0 1-16.97792-3.956736c3.575808 17.096704 18.812928 30.040064 36.929536 30.040064 20.750336 0 37.728256-16.97792 37.728256-37.72416V375.934976c0-20.750336-16.97792-37.728256-37.728256-37.728256zM80.031744 336.842752c-0.606208 0-1.224704 0.065536-1.835008 0.094208 10.665984 5.77536 17.85856 16.42496 17.85856 28.581888v90.64448c0 18.243584-16.187392 33.169408-35.975168 33.169408a38.199296 38.199296 0 0 1-16.97792-3.956736c3.575808 17.096704 18.812928 30.040064 36.929536 30.040064 20.750336 0 37.728256-16.97792 37.728256-37.72416V374.571008c0-20.750336-16.97792-37.728256-37.728256-37.728256z" fill="#6E6E96" opacity=".15" p-id="2962"></path><path d="M859.136 795.308032c0 48.553984-39.50592 88.064-88.064 88.064H267.264c-48.553984 0-88.064-39.510016-88.064-88.064v-602.112c0-48.55808 39.510016-88.064 88.064-88.064h503.808c48.55808 0 88.064 39.50592 88.064 88.064v602.112z m28.672-602.112c0-64.36864-52.36736-116.736-116.736-116.736H267.264c-64.36864 0-116.736 52.36736-116.736 116.736v602.112c0 64.36864 52.36736 116.736 116.736 116.736h503.808c64.36864 0 116.736-52.36736 116.736-116.736v-602.112z" fill="#6E6E96" p-id="2963"></path><path d="M771.072 840.359936H267.264c-56.32 0-102.4-46.08-102.4-102.4v57.348096c0 56.32 46.08 102.4 102.4 102.4h503.808c56.32 0 102.4-46.08 102.4-102.4v-57.348096c0 56.32-46.08 102.4-102.4 102.4z" fill="#6E6E96" opacity=".15" p-id="2964"></path><path d="M435.249152 178.176h161.792a16.384 16.384 0 0 0 0-32.768h-161.792a16.384 16.384 0 0 0 0 32.768zM513.073152 743.424h28.672V815.104h-28.672zM443.441152 743.424h28.672V815.104h-28.672zM582.705152 743.424h28.672V815.104h-28.672z" fill="#6E6E96" p-id="2965"></path><path d="M220.893184 231.215104h598.016V645.12h-598.016z" fill="#AADBF7" p-id="2966"></path><path d="M230.42048 288.976896l-2.531328 265.68704 292.487168-265.68704h-289.95584z m360.402944 0L290.770944 563.2h134.713344l300.05248-274.223104h-134.713344z" fill="#FFFFFF" opacity=".55" p-id="2967"></path><path d="M818.909184 630.784h-598.016l14.336 14.336V231.215104l-14.336 14.336h598.016l-14.336-14.336V645.12l14.336-14.336z m0-413.904896h-612.352V659.456h626.688V216.879104h-14.336z" fill="#6E6E96" p-id="2968"></path><path d="M235.229184 245.551104h569.344v43.429888h-569.344z" fill="#6E6E96" opacity=".15" p-id="2969"></path><path d="M235.229184 565.932032h569.344V630.784h-569.344z" fill="#6E6E96" opacity=".2" p-id="2970"></path></svg>